<?xml version="1.0" encoding="utf-8" standalone="no"?>
<!DOCTYPE svg PUBLIC "-//W3C//DTD SVG 1.1//EN"
        "http://www.w3.org/Graphics/SVG/1.1/DTD/svg11.dtd">
<svg xmlns:xlink="http://www.w3.org/1999/xlink" width="432pt" height="432pt" viewBox="0 0 432 432"
     xmlns="http://www.w3.org/2000/svg" version="1.1">
    <metadata>
        <rdf:RDF xmlns:dc="http://purl.org/dc/elements/1.1/" xmlns:cc="http://creativecommons.org/ns#"
                 xmlns:rdf="http://www.w3.org/1999/02/22-rdf-syntax-ns#">
            <cc:Work>
                <dc:type rdf:resource="http://purl.org/dc/dcmitype/StillImage"/>
                <dc:date>2024-04-25T18:59:15.779867</dc:date>
                <dc:format>image/svg+xml</dc:format>
                <dc:creator>
                    <cc:Agent>
                        <dc:title>Matplotlib v3.8.3, https://matplotlib.org/</dc:title>
                    </cc:Agent>
                </dc:creator>
            </cc:Work>
        </rdf:RDF>
    </metadata>
    <defs>
        <style type="text/css">*{stroke-linejoin: round; stroke-linecap: butt}</style>
    </defs>
    <g id="figure_1">
        <g id="patch_1">
            <path d="M 0 432
L 432 432 
L 432 0 
L 0 0 
z
" style="fill: #ffffff"/>
        </g>
        <g id="axes_1">
            <g id="patch_2">
                <path d="M 54 384.48
L 388.8 384.48 
L 388.8 51.84 
L 54 51.84 
z
" style="fill: #ffffff"/>
            </g>
            <g id="patch_3">
                <path d="M 95.351633 87.687965
Q 117.63952 100.341733 138.469008 112.167507 
" clip-path="url(#p12c44e989a)" style="fill: none; stroke: #808080; stroke-width: 1.5; stroke-linecap: round"/>
                <path d="M 135.479757 107.71056
L 138.469008 112.167507 
L 133.1099 111.88474 
z
" clip-path="url(#p12c44e989a)" style="fill: #808080; stroke: #808080; stroke-width: 1.5; stroke-linecap: round"/>
            </g>
            <g id="patch_4">
                <path d="M 96.660459 84.568248
Q 152.229473 100.342677 206.185179 115.659136 
" clip-path="url(#p12c44e989a)" style="fill: none; stroke: #808080; stroke-width: 1.5; stroke-linecap: round"/>
                <path d="M 202.223018 112.039567
L 206.185179 115.659136 
L 200.912227 116.657124 
z
" clip-path="url(#p12c44e989a)" style="fill: #808080; stroke: #808080; stroke-width: 1.5; stroke-linecap: round"/>
            </g>
            <g id="patch_5">
                <path d="M 96.950722 83.335581
Q 186.814749 100.342107 275.030973 117.03679 
" clip-path="url(#p12c44e989a)" style="fill: none; stroke: #808080; stroke-width: 1.5; stroke-linecap: round"/>
                <path d="M 270.760958 113.786102
L 275.030973 117.03679 
L 269.868413 118.502389 
z
" clip-path="url(#p12c44e989a)" style="fill: #808080; stroke: #808080; stroke-width: 1.5; stroke-linecap: round"/>
            </g>
            <g id="patch_6">
                <path d="M 97.057328 82.693181
Q 221.401673 100.342056 344.085609 117.755259 
" clip-path="url(#p12c44e989a)" style="fill: none; stroke: #808080; stroke-width: 1.5; stroke-linecap: round"/>
                <path d="M 339.670505 114.704545
L 344.085609 117.755259 
L 338.995975 119.456914 
z
" clip-path="url(#p12c44e989a)" style="fill: #808080; stroke: #808080; stroke-width: 1.5; stroke-linecap: round"/>
            </g>
            <g id="patch_7">
                <path d="M 152.226446 134.115788
Q 152.226446 139.612562 152.226446 143.432284 
" clip-path="url(#p12c44e989a)" style="fill: none; stroke: #808080; stroke-width: 1.5; stroke-linecap: round"/>
                <path d="M 154.626446 138.632284
L 152.226446 143.432284 
L 149.826446 138.632284 
z
" clip-path="url(#p12c44e989a)" style="fill: #808080; stroke: #808080; stroke-width: 1.5; stroke-linecap: round"/>
            </g>
            <g id="patch_8">
                <path d="M 221.4 134.115788
Q 221.4 159.249552 221.4 182.706264 
" clip-path="url(#p12c44e989a)" style="fill: none; stroke: #808080; stroke-width: 1.5; stroke-linecap: round"/>
                <path d="M 223.8 177.906264
L 221.4 182.706264 
L 219 177.906264 
z
" clip-path="url(#p12c44e989a)" style="fill: #808080; stroke: #808080; stroke-width: 1.5; stroke-linecap: round"/>
            </g>
            <g id="patch_9">
                <path d="M 290.573554 134.115788
Q 290.573554 159.249552 290.573554 182.706264 
" clip-path="url(#p12c44e989a)" style="fill: none; stroke: #808080; stroke-width: 1.5; stroke-linecap: round"/>
                <path d="M 292.973554 177.906264
L 290.573554 182.706264 
L 288.173554 177.906264 
z
" clip-path="url(#p12c44e989a)" style="fill: #808080; stroke: #808080; stroke-width: 1.5; stroke-linecap: round"/>
            </g>
            <g id="patch_10">
                <path d="M 359.747107 134.115788
Q 359.747107 159.249552 359.747107 182.706264 
" clip-path="url(#p12c44e989a)" style="fill: none; stroke: #808080; stroke-width: 1.5; stroke-linecap: round"/>
                <path d="M 362.147107 177.906264
L 359.747107 182.706264 
L 357.347107 177.906264 
z
" clip-path="url(#p12c44e989a)" style="fill: #808080; stroke: #808080; stroke-width: 1.5; stroke-linecap: round"/>
            </g>
            <g id="patch_11">
                <path d="M 164.525187 166.23342
Q 186.813074 178.887188 207.642562 190.712962 
" clip-path="url(#p12c44e989a)" style="fill: none; stroke: #808080; stroke-width: 1.5; stroke-linecap: round"/>
                <path d="M 204.653311 186.256015
L 207.642562 190.712962 
L 202.283454 190.430195 
z
" clip-path="url(#p12c44e989a)" style="fill: #808080; stroke: #808080; stroke-width: 1.5; stroke-linecap: round"/>
            </g>
            <g id="patch_12">
                <path d="M 165.834012 163.113702
Q 221.403027 178.888132 275.358733 194.20459 
" clip-path="url(#p12c44e989a)" style="fill: none; stroke: #808080; stroke-width: 1.5; stroke-linecap: round"/>
                <path d="M 271.396571 190.585022
L 275.358733 194.20459 
L 270.085781 195.202578 
z
" clip-path="url(#p12c44e989a)" style="fill: #808080; stroke: #808080; stroke-width: 1.5; stroke-linecap: round"/>
            </g>
            <g id="patch_13">
                <path d="M 166.124276 161.881036
Q 255.988303 178.887562 344.204526 195.582245 
" clip-path="url(#p12c44e989a)" style="fill: none; stroke: #808080; stroke-width: 1.5; stroke-linecap: round"/>
                <path d="M 339.934512 192.331556
L 344.204526 195.582245 
L 339.041967 197.047844 
z
" clip-path="url(#p12c44e989a)" style="fill: #808080; stroke: #808080; stroke-width: 1.5; stroke-linecap: round"/>
            </g>
            <g id="patch_14">
                <path d="M 221.4 212.661243
Q 221.4 218.158016 221.4 221.977739 
" clip-path="url(#p12c44e989a)" style="fill: none; stroke: #808080; stroke-width: 1.5; stroke-linecap: round"/>
                <path d="M 223.8 217.177739
L 221.4 221.977739 
L 219 217.177739 
z
" clip-path="url(#p12c44e989a)" style="fill: #808080; stroke: #808080; stroke-width: 1.5; stroke-linecap: round"/>
            </g>
            <g id="patch_15">
                <path d="M 290.573554 212.661243
Q 290.573554 237.795006 290.573554 261.251718 
" clip-path="url(#p12c44e989a)" style="fill: none; stroke: #808080; stroke-width: 1.5; stroke-linecap: round"/>
                <path d="M 292.973554 256.451718
L 290.573554 261.251718 
L 288.173554 256.451718 
z
" clip-path="url(#p12c44e989a)" style="fill: #808080; stroke: #808080; stroke-width: 1.5; stroke-linecap: round"/>
            </g>
            <g id="patch_16">
                <path d="M 359.747107 212.661243
Q 359.747107 237.795006 359.747107 261.251718 
" clip-path="url(#p12c44e989a)" style="fill: none; stroke: #808080; stroke-width: 1.5; stroke-linecap: round"/>
                <path d="M 362.147107 256.451718
L 359.747107 261.251718 
L 357.347107 256.451718 
z
" clip-path="url(#p12c44e989a)" style="fill: #808080; stroke: #808080; stroke-width: 1.5; stroke-linecap: round"/>
            </g>
            <g id="patch_17">
                <path d="M 233.69874 244.778874
Q 255.986627 257.432642 276.816116 269.258416 
" clip-path="url(#p12c44e989a)" style="fill: none; stroke: #808080; stroke-width: 1.5; stroke-linecap: round"/>
                <path d="M 273.826864 264.80147
L 276.816116 269.258416 
L 271.457007 268.975649 
z
" clip-path="url(#p12c44e989a)" style="fill: #808080; stroke: #808080; stroke-width: 1.5; stroke-linecap: round"/>
            </g>
            <g id="patch_18">
                <path d="M 235.007566 241.659157
Q 290.57658 257.433586 344.532286 272.750045 
" clip-path="url(#p12c44e989a)" style="fill: none; stroke: #808080; stroke-width: 1.5; stroke-linecap: round"/>
                <path d="M 340.570125 269.130476
L 344.532286 272.750045 
L 339.259335 273.748033 
z
" clip-path="url(#p12c44e989a)" style="fill: #808080; stroke: #808080; stroke-width: 1.5; stroke-linecap: round"/>
            </g>
            <g id="patch_19">
                <path d="M 290.573554 291.206697
Q 290.573554 296.703471 290.573554 300.523194 
" clip-path="url(#p12c44e989a)" style="fill: none; stroke: #808080; stroke-width: 1.5; stroke-linecap: round"/>
                <path d="M 292.973554 295.723194
L 290.573554 300.523194 
L 288.173554 295.723194 
z
" clip-path="url(#p12c44e989a)" style="fill: #808080; stroke: #808080; stroke-width: 1.5; stroke-linecap: round"/>
            </g>
            <g id="patch_20">
                <path d="M 359.747107 291.206697
Q 359.747107 316.340461 359.747107 339.797173 
" clip-path="url(#p12c44e989a)" style="fill: none; stroke: #808080; stroke-width: 1.5; stroke-linecap: round"/>
                <path d="M 362.147107 334.997173
L 359.747107 339.797173 
L 357.347107 334.997173 
z
" clip-path="url(#p12c44e989a)" style="fill: #808080; stroke: #808080; stroke-width: 1.5; stroke-linecap: round"/>
            </g>
            <g id="patch_21">
                <path d="M 302.872294 323.324329
Q 325.160181 335.978097 345.989669 347.803871 
" clip-path="url(#p12c44e989a)" style="fill: none; stroke: #808080; stroke-width: 1.5; stroke-linecap: round"/>
                <path d="M 343.000418 343.346924
L 345.989669 347.803871 
L 340.630561 347.521104 
z
" clip-path="url(#p12c44e989a)" style="fill: #808080; stroke: #808080; stroke-width: 1.5; stroke-linecap: round"/>
            </g>
            <g id="matplotlib.axis_1">
                <g id="xtick_1"/>
                <g id="xtick_2"/>
                <g id="xtick_3"/>
                <g id="xtick_4"/>
                <g id="xtick_5"/>
            </g>
            <g id="matplotlib.axis_2">
                <g id="ytick_1"/>
                <g id="ytick_2"/>
                <g id="ytick_3"/>
                <g id="ytick_4"/>
                <g id="ytick_5"/>
                <g id="ytick_6"/>
                <g id="ytick_7"/>
                <g id="ytick_8"/>
            </g>
            <g id="PathCollection_1">
                <defs>
                    <path id="m9639d72016" d="M 0 14.142136
C 3.750538 14.142136 7.347969 12.652031 10 10 
C 12.652031 7.347969 14.142136 3.750538 14.142136 0 
C 14.142136 -3.750538 12.652031 -7.347969 10 -10 
C 7.347969 -12.652031 3.750538 -14.142136 0 -14.142136 
C -3.750538 -14.142136 -7.347969 -12.652031 -10 -10 
C -12.652031 -7.347969 -14.142136 -3.750538 -14.142136 0 
C -14.142136 3.750538 -12.652031 7.347969 -10 10 
C -7.347969 12.652031 -3.750538 14.142136 0 14.142136 
z
" style="stroke: #add8e6"/>
                </defs>
                <g clip-path="url(#p12c44e989a)">
                    <use xlink:href="#m9639d72016" x="83.052893" y="80.705455" style="fill: #add8e6; stroke: #add8e6"/>
                    <use xlink:href="#m9639d72016" x="152.226446" y="119.978182"
                         style="fill: #add8e6; stroke: #add8e6"/>
                    <use xlink:href="#m9639d72016" x="221.4" y="119.978182" style="fill: #add8e6; stroke: #add8e6"/>
                    <use xlink:href="#m9639d72016" x="290.573554" y="119.978182"
                         style="fill: #add8e6; stroke: #add8e6"/>
                    <use xlink:href="#m9639d72016" x="359.747107" y="119.978182"
                         style="fill: #add8e6; stroke: #add8e6"/>
                    <use xlink:href="#m9639d72016" x="152.226446" y="159.250909"
                         style="fill: #add8e6; stroke: #add8e6"/>
                    <use xlink:href="#m9639d72016" x="221.4" y="198.523636" style="fill: #add8e6; stroke: #add8e6"/>
                    <use xlink:href="#m9639d72016" x="290.573554" y="198.523636"
                         style="fill: #add8e6; stroke: #add8e6"/>
                    <use xlink:href="#m9639d72016" x="359.747107" y="198.523636"
                         style="fill: #add8e6; stroke: #add8e6"/>
                    <use xlink:href="#m9639d72016" x="221.4" y="237.796364" style="fill: #add8e6; stroke: #add8e6"/>
                    <use xlink:href="#m9639d72016" x="290.573554" y="277.069091"
                         style="fill: #add8e6; stroke: #add8e6"/>
                    <use xlink:href="#m9639d72016" x="359.747107" y="277.069091"
                         style="fill: #add8e6; stroke: #add8e6"/>
                    <use xlink:href="#m9639d72016" x="290.573554" y="316.341818"
                         style="fill: #add8e6; stroke: #add8e6"/>
                    <use xlink:href="#m9639d72016" x="359.747107" y="355.614545"
                         style="fill: #add8e6; stroke: #add8e6"/>
                </g>
            </g>
            <g id="patch_22">
                <path d="M 54 384.48
L 54 51.84 
" style="fill: none; stroke: #000000; stroke-width: 0.8; stroke-linejoin: miter; stroke-linecap: square"/>
            </g>
            <g id="patch_23">
                <path d="M 388.8 384.48
L 388.8 51.84 
" style="fill: none; stroke: #000000; stroke-width: 0.8; stroke-linejoin: miter; stroke-linecap: square"/>
            </g>
            <g id="patch_24">
                <path d="M 54 384.48
L 388.8 384.48 
" style="fill: none; stroke: #000000; stroke-width: 0.8; stroke-linejoin: miter; stroke-linecap: square"/>
            </g>
            <g id="patch_25">
                <path d="M 54 51.84
L 388.8 51.84 
" style="fill: none; stroke: #000000; stroke-width: 0.8; stroke-linejoin: miter; stroke-linecap: square"/>
            </g>
            <g id="text_1">
                <g clip-path="url(#p12c44e989a)">
                    <!-- 1 -->
                    <g transform="translate(78.878205 84.016705) scale(0.12 -0.12)">
                        <defs>
                            <path id="DejaVuSans-Bold-31" d="M 750 831
L 1813 831 
L 1813 3847 
L 722 3622 
L 722 4441 
L 1806 4666 
L 2950 4666 
L 2950 831 
L 4013 831 
L 4013 0 
L 750 0 
L 750 831 
z
" transform="scale(0.015625)"/>
                        </defs>
                        <use xlink:href="#DejaVuSans-Bold-31"/>
                    </g>
                </g>
            </g>
            <g id="text_2">
                <g clip-path="url(#p12c44e989a)">
                    <!-- 2 -->
                    <g transform="translate(148.051759 123.289432) scale(0.12 -0.12)">
                        <defs>
                            <path id="DejaVuSans-Bold-32" d="M 1844 884
L 3897 884 
L 3897 0 
L 506 0 
L 506 884 
L 2209 2388 
Q 2438 2594 2547 2791 
Q 2656 2988 2656 3200 
Q 2656 3528 2436 3728 
Q 2216 3928 1850 3928 
Q 1569 3928 1234 3808 
Q 900 3688 519 3450 
L 519 4475 
Q 925 4609 1322 4679 
Q 1719 4750 2100 4750 
Q 2938 4750 3402 4381 
Q 3866 4013 3866 3353 
Q 3866 2972 3669 2642 
Q 3472 2313 2841 1759 
L 1844 884 
z
" transform="scale(0.015625)"/>
                        </defs>
                        <use xlink:href="#DejaVuSans-Bold-32"/>
                    </g>
                </g>
            </g>
            <g id="text_3">
                <g clip-path="url(#p12c44e989a)">
                    <!-- 3 -->
                    <g transform="translate(217.225312 123.289432) scale(0.12 -0.12)">
                        <defs>
                            <path id="DejaVuSans-Bold-33" d="M 2981 2516
Q 3453 2394 3698 2092 
Q 3944 1791 3944 1325 
Q 3944 631 3412 270 
Q 2881 -91 1863 -91 
Q 1503 -91 1142 -33 
Q 781 25 428 141 
L 428 1069 
Q 766 900 1098 814 
Q 1431 728 1753 728 
Q 2231 728 2486 893 
Q 2741 1059 2741 1369 
Q 2741 1688 2480 1852 
Q 2219 2016 1709 2016 
L 1228 2016 
L 1228 2791 
L 1734 2791 
Q 2188 2791 2409 2933 
Q 2631 3075 2631 3366 
Q 2631 3634 2415 3781 
Q 2200 3928 1806 3928 
Q 1516 3928 1219 3862 
Q 922 3797 628 3669 
L 628 4550 
Q 984 4650 1334 4700 
Q 1684 4750 2022 4750 
Q 2931 4750 3382 4451 
Q 3834 4153 3834 3553 
Q 3834 3144 3618 2883 
Q 3403 2622 2981 2516 
z
" transform="scale(0.015625)"/>
                        </defs>
                        <use xlink:href="#DejaVuSans-Bold-33"/>
                    </g>
                </g>
            </g>
            <g id="text_4">
                <g clip-path="url(#p12c44e989a)">
                    <!-- 4 -->
                    <g transform="translate(286.398866 123.289432) scale(0.12 -0.12)">
                        <defs>
                            <path id="DejaVuSans-Bold-34" d="M 2356 3675
L 1038 1722 
L 2356 1722 
L 2356 3675 
z
M 2156 4666 
L 3494 4666 
L 3494 1722 
L 4159 1722 
L 4159 850 
L 3494 850 
L 3494 0 
L 2356 0 
L 2356 850 
L 288 850 
L 288 1881 
L 2156 4666 
z
" transform="scale(0.015625)"/>
                        </defs>
                        <use xlink:href="#DejaVuSans-Bold-34"/>
                    </g>
                </g>
            </g>
            <g id="text_5">
                <g clip-path="url(#p12c44e989a)">
                    <!-- 5 -->
                    <g transform="translate(355.57242 123.289432) scale(0.12 -0.12)">
                        <defs>
                            <path id="DejaVuSans-Bold-35" d="M 678 4666
L 3669 4666 
L 3669 3781 
L 1638 3781 
L 1638 3059 
Q 1775 3097 1914 3117 
Q 2053 3138 2203 3138 
Q 3056 3138 3531 2711 
Q 4006 2284 4006 1522 
Q 4006 766 3489 337 
Q 2972 -91 2053 -91 
Q 1656 -91 1267 -14 
Q 878 63 494 219 
L 494 1166 
Q 875 947 1217 837 
Q 1559 728 1863 728 
Q 2300 728 2551 942 
Q 2803 1156 2803 1522 
Q 2803 1891 2551 2103 
Q 2300 2316 1863 2316 
Q 1603 2316 1309 2248 
Q 1016 2181 678 2041 
L 678 4666 
z
" transform="scale(0.015625)"/>
                        </defs>
                        <use xlink:href="#DejaVuSans-Bold-35"/>
                    </g>
                </g>
            </g>
            <g id="text_6">
                <g clip-path="url(#p12c44e989a)">
                    <!-- 6 -->
                    <g transform="translate(148.051759 162.562159) scale(0.12 -0.12)">
                        <defs>
                            <path id="DejaVuSans-Bold-36" d="M 2316 2303
Q 2000 2303 1842 2098 
Q 1684 1894 1684 1484 
Q 1684 1075 1842 870 
Q 2000 666 2316 666 
Q 2634 666 2792 870 
Q 2950 1075 2950 1484 
Q 2950 1894 2792 2098 
Q 2634 2303 2316 2303 
z
M 3803 4544 
L 3803 3681 
Q 3506 3822 3243 3889 
Q 2981 3956 2731 3956 
Q 2194 3956 1894 3657 
Q 1594 3359 1544 2772 
Q 1750 2925 1990 3001 
Q 2231 3078 2516 3078 
Q 3231 3078 3670 2659 
Q 4109 2241 4109 1563 
Q 4109 813 3618 361 
Q 3128 -91 2303 -91 
Q 1394 -91 895 523 
Q 397 1138 397 2266 
Q 397 3422 980 4083 
Q 1563 4744 2578 4744 
Q 2900 4744 3203 4694 
Q 3506 4644 3803 4544 
z
" transform="scale(0.015625)"/>
                        </defs>
                        <use xlink:href="#DejaVuSans-Bold-36"/>
                    </g>
                </g>
            </g>
            <g id="text_7">
                <g clip-path="url(#p12c44e989a)">
                    <!-- 7 -->
                    <g transform="translate(217.225312 201.834886) scale(0.12 -0.12)">
                        <defs>
                            <path id="DejaVuSans-Bold-37" d="M 428 4666
L 3944 4666 
L 3944 3988 
L 2125 0 
L 953 0 
L 2675 3781 
L 428 3781 
L 428 4666 
z
" transform="scale(0.015625)"/>
                        </defs>
                        <use xlink:href="#DejaVuSans-Bold-37"/>
                    </g>
                </g>
            </g>
            <g id="text_8">
                <g clip-path="url(#p12c44e989a)">
                    <!-- 8 -->
                    <g transform="translate(286.398866 201.834886) scale(0.12 -0.12)">
                        <defs>
                            <path id="DejaVuSans-Bold-38" d="M 2228 2088
Q 1891 2088 1709 1903 
Q 1528 1719 1528 1375 
Q 1528 1031 1709 848 
Q 1891 666 2228 666 
Q 2563 666 2741 848 
Q 2919 1031 2919 1375 
Q 2919 1722 2741 1905 
Q 2563 2088 2228 2088 
z
M 1350 2484 
Q 925 2613 709 2878 
Q 494 3144 494 3541 
Q 494 4131 934 4440 
Q 1375 4750 2228 4750 
Q 3075 4750 3515 4442 
Q 3956 4134 3956 3541 
Q 3956 3144 3739 2878 
Q 3522 2613 3097 2484 
Q 3572 2353 3814 2058 
Q 4056 1763 4056 1313 
Q 4056 619 3595 264 
Q 3134 -91 2228 -91 
Q 1319 -91 855 264 
Q 391 619 391 1313 
Q 391 1763 633 2058 
Q 875 2353 1350 2484 
z
M 1631 3419 
Q 1631 3141 1786 2991 
Q 1941 2841 2228 2841 
Q 2509 2841 2662 2991 
Q 2816 3141 2816 3419 
Q 2816 3697 2662 3845 
Q 2509 3994 2228 3994 
Q 1941 3994 1786 3844 
Q 1631 3694 1631 3419 
z
" transform="scale(0.015625)"/>
                        </defs>
                        <use xlink:href="#DejaVuSans-Bold-38"/>
                    </g>
                </g>
            </g>
            <g id="text_9">
                <g clip-path="url(#p12c44e989a)">
                    <!-- 9 -->
                    <g transform="translate(355.57242 201.834886) scale(0.12 -0.12)">
                        <defs>
                            <path id="DejaVuSans-Bold-39" d="M 641 103
L 641 966 
Q 928 831 1190 764 
Q 1453 697 1709 697 
Q 2247 697 2547 995 
Q 2847 1294 2900 1881 
Q 2688 1725 2447 1647 
Q 2206 1569 1925 1569 
Q 1209 1569 770 1986 
Q 331 2403 331 3084 
Q 331 3838 820 4291 
Q 1309 4744 2131 4744 
Q 3044 4744 3544 4128 
Q 4044 3513 4044 2388 
Q 4044 1231 3459 570 
Q 2875 -91 1856 -91 
Q 1528 -91 1228 -42 
Q 928 6 641 103 
z
M 2125 2350 
Q 2441 2350 2600 2554 
Q 2759 2759 2759 3169 
Q 2759 3575 2600 3781 
Q 2441 3988 2125 3988 
Q 1809 3988 1650 3781 
Q 1491 3575 1491 3169 
Q 1491 2759 1650 2554 
Q 1809 2350 2125 2350 
z
" transform="scale(0.015625)"/>
                        </defs>
                        <use xlink:href="#DejaVuSans-Bold-39"/>
                    </g>
                </g>
            </g>
            <g id="text_10">
                <g clip-path="url(#p12c44e989a)">
                    <!-- 10 -->
                    <g transform="translate(213.050625 241.107614) scale(0.12 -0.12)">
                        <defs>
                            <path id="DejaVuSans-Bold-30" d="M 2944 2338
Q 2944 3213 2780 3570 
Q 2616 3928 2228 3928 
Q 1841 3928 1675 3570 
Q 1509 3213 1509 2338 
Q 1509 1453 1675 1090 
Q 1841 728 2228 728 
Q 2613 728 2778 1090 
Q 2944 1453 2944 2338 
z
M 4147 2328 
Q 4147 1169 3647 539 
Q 3147 -91 2228 -91 
Q 1306 -91 806 539 
Q 306 1169 306 2328 
Q 306 3491 806 4120 
Q 1306 4750 2228 4750 
Q 3147 4750 3647 4120 
Q 4147 3491 4147 2328 
z
" transform="scale(0.015625)"/>
                        </defs>
                        <use xlink:href="#DejaVuSans-Bold-31"/>
                        <use xlink:href="#DejaVuSans-Bold-30" x="69.580078"/>
                    </g>
                </g>
            </g>
            <g id="text_11">
                <g clip-path="url(#p12c44e989a)">
                    <!-- 11 -->
                    <g transform="translate(282.224179 280.380341) scale(0.12 -0.12)">
                        <use xlink:href="#DejaVuSans-Bold-31"/>
                        <use xlink:href="#DejaVuSans-Bold-31" x="69.580078"/>
                    </g>
                </g>
            </g>
            <g id="text_12">
                <g clip-path="url(#p12c44e989a)">
                    <!-- 12 -->
                    <g transform="translate(351.397732 280.380341) scale(0.12 -0.12)">
                        <use xlink:href="#DejaVuSans-Bold-31"/>
                        <use xlink:href="#DejaVuSans-Bold-32" x="69.580078"/>
                    </g>
                </g>
            </g>
            <g id="text_13">
                <g clip-path="url(#p12c44e989a)">
                    <!-- 13 -->
                    <g transform="translate(282.224179 319.653068) scale(0.12 -0.12)">
                        <use xlink:href="#DejaVuSans-Bold-31"/>
                        <use xlink:href="#DejaVuSans-Bold-33" x="69.580078"/>
                    </g>
                </g>
            </g>
            <g id="text_14">
                <g clip-path="url(#p12c44e989a)">
                    <!-- 14 -->
                    <g transform="translate(351.397732 358.925795) scale(0.12 -0.12)">
                        <use xlink:href="#DejaVuSans-Bold-31"/>
                        <use xlink:href="#DejaVuSans-Bold-34" x="69.580078"/>
                    </g>
                </g>
            </g>
        </g>
    </g>
    <defs>
        <clipPath id="p12c44e989a">
            <rect x="54" y="51.84" width="334.8" height="332.64"/>
        </clipPath>
    </defs>
</svg>
