<?xml version="1.0" encoding="utf-8" standalone="no"?>
<!DOCTYPE svg PUBLIC "-//W3C//DTD SVG 1.1//EN"
        "http://www.w3.org/Graphics/SVG/1.1/DTD/svg11.dtd">
<svg xmlns:xlink="http://www.w3.org/1999/xlink" width="432pt" height="432pt" viewBox="0 0 432 432"
     xmlns="http://www.w3.org/2000/svg" version="1.1">
    <metadata>
        <rdf:RDF xmlns:dc="http://purl.org/dc/elements/1.1/" xmlns:cc="http://creativecommons.org/ns#"
                 xmlns:rdf="http://www.w3.org/1999/02/22-rdf-syntax-ns#">
            <cc:Work>
                <dc:type rdf:resource="http://purl.org/dc/dcmitype/StillImage"/>
                <dc:date>2024-04-12T20:46:21.421678</dc:date>
                <dc:format>image/svg+xml</dc:format>
                <dc:creator>
                    <cc:Agent>
                        <dc:title>Matplotlib v3.8.3, https://matplotlib.org/</dc:title>
                    </cc:Agent>
                </dc:creator>
            </cc:Work>
        </rdf:RDF>
    </metadata>
    <defs>
        <style type="text/css">*{stroke-linejoin: round; stroke-linecap: butt}</style>
    </defs>
    <g id="figure_1">
        <g id="patch_1">
            <path d="M 0 432
L 432 432 
L 432 0 
L 0 0 
z
" style="fill: #ffffff"/>
        </g>
        <g id="axes_1">
            <g id="patch_2">
                <path d="M 54 384.48
L 388.8 384.48 
L 388.8 51.84 
L 54 51.84 
z
" style="fill: #ffffff"/>
            </g>
            <g id="patch_3">
                <path d="M 210.327756 89.506103
Q 163.754825 126.524071 118.494749 162.498532 
" clip-path="url(#p93b81e3e45)" style="fill: none; stroke: #808080; stroke-width: 1.5; stroke-linecap: round"/>
                <path d="M 123.745709 161.390642
L 118.494749 162.498532 
L 120.759013 157.63303 
z
" clip-path="url(#p93b81e3e45)" style="fill: #808080; stroke: #808080; stroke-width: 1.5; stroke-linecap: round"/>
            </g>
            <g id="patch_4">
                <path d="M 221.4 94.847456
Q 221.4 126.52583 221.4 156.527154 
" clip-path="url(#p93b81e3e45)" style="fill: none; stroke: #808080; stroke-width: 1.5; stroke-linecap: round"/>
                <path d="M 223.8 151.727154
L 221.4 156.527154 
L 219 151.727154 
z
" clip-path="url(#p93b81e3e45)" style="fill: #808080; stroke: #808080; stroke-width: 1.5; stroke-linecap: round"/>
            </g>
            <g id="patch_5">
                <path d="M 232.472244 89.506103
Q 279.045175 126.524071 324.305251 162.498532 
" clip-path="url(#p93b81e3e45)" style="fill: none; stroke: #808080; stroke-width: 1.5; stroke-linecap: round"/>
                <path d="M 322.040987 157.63303
L 324.305251 162.498532 
L 319.054291 161.390642 
z
" clip-path="url(#p93b81e3e45)" style="fill: #808080; stroke: #808080; stroke-width: 1.5; stroke-linecap: round"/>
            </g>
            <g id="patch_6">
                <path d="M 102.659244 186.058748
Q 94.581078 218.162944 86.91214 248.640784 
" clip-path="url(#p93b81e3e45)" style="fill: none; stroke: #808080; stroke-width: 1.5; stroke-linecap: round"/>
                <path d="M 90.410873 244.571524
L 86.91214 248.640784 
L 85.755972 243.400242 
z
" clip-path="url(#p93b81e3e45)" style="fill: #808080; stroke: #808080; stroke-width: 1.5; stroke-linecap: round"/>
            </g>
            <g id="patch_7">
                <path d="M 112.467697 184.973699
Q 129.168725 218.160259 145.115866 249.84877 
" clip-path="url(#p93b81e3e45)" style="fill: none; stroke: #808080; stroke-width: 1.5; stroke-linecap: round"/>
                <path d="M 145.101945 244.482225
L 145.115866 249.84877 
L 140.814277 246.63998 
z
" clip-path="url(#p93b81e3e45)" style="fill: #808080; stroke: #808080; stroke-width: 1.5; stroke-linecap: round"/>
            </g>
            <g id="patch_8">
                <path d="M 118.773985 178.63259
Q 198.341649 218.159752 276.407379 256.940792 
" clip-path="url(#p93b81e3e45)" style="fill: none; stroke: #808080; stroke-width: 1.5; stroke-linecap: round"/>
                <path d="M 273.176359 252.655876
L 276.407379 256.940792 
L 271.040834 256.954659 
z
" clip-path="url(#p93b81e3e45)" style="fill: #808080; stroke: #808080; stroke-width: 1.5; stroke-linecap: round"/>
            </g>
            <g id="patch_9">
                <path d="M 209.610013 180.1511
Q 152.227127 218.159549 96.242401 255.241906 
" clip-path="url(#p93b81e3e45)" style="fill: none; stroke: #808080; stroke-width: 1.5; stroke-linecap: round"/>
                <path d="M 101.569485 254.592156
L 96.242401 255.241906 
L 98.918852 250.590389 
z
" clip-path="url(#p93b81e3e45)" style="fill: #808080; stroke: #808080; stroke-width: 1.5; stroke-linecap: round"/>
            </g>
            <g id="patch_10">
                <path d="M 212.877855 183.631369
Q 186.812076 218.16152 161.756694 251.353166 
" clip-path="url(#p93b81e3e45)" style="fill: none; stroke: #808080; stroke-width: 1.5; stroke-linecap: round"/>
                <path d="M 166.564134 248.968104
L 161.756694 251.353166 
L 162.733108 246.076177 
z
" clip-path="url(#p93b81e3e45)" style="fill: #808080; stroke: #808080; stroke-width: 1.5; stroke-linecap: round"/>
            </g>
            <g id="patch_11">
                <path d="M 221.4 186.483819
Q 221.4 218.162194 221.4 248.163518 
" clip-path="url(#p93b81e3e45)" style="fill: none; stroke: #808080; stroke-width: 1.5; stroke-linecap: round"/>
                <path d="M 223.8 243.363518
L 221.4 248.163518 
L 219 243.363518 
z
" clip-path="url(#p93b81e3e45)" style="fill: #808080; stroke: #808080; stroke-width: 1.5; stroke-linecap: round"/>
            </g>
            <g id="patch_12">
                <path d="M 325.617012 181.142466
Q 279.044081 218.160435 233.784005 254.134895 
" clip-path="url(#p93b81e3e45)" style="fill: none; stroke: #808080; stroke-width: 1.5; stroke-linecap: round"/>
                <path d="M 239.034965 253.027006
L 233.784005 254.134895 
L 236.048269 249.269394 
z
" clip-path="url(#p93b81e3e45)" style="fill: #808080; stroke: #808080; stroke-width: 1.5; stroke-linecap: round"/>
            </g>
            <g id="patch_13">
                <path d="M 330.332303 184.973699
Q 313.631275 218.160259 297.684134 249.84877 
" clip-path="url(#p93b81e3e45)" style="fill: none; stroke: #808080; stroke-width: 1.5; stroke-linecap: round"/>
                <path d="M 301.985723 246.63998
L 297.684134 249.84877 
L 297.698055 244.482225 
z
" clip-path="url(#p93b81e3e45)" style="fill: #808080; stroke: #808080; stroke-width: 1.5; stroke-linecap: round"/>
            </g>
            <g id="patch_14">
                <path d="M 340.140756 186.058748
Q 348.218922 218.162944 355.88786 248.640784 
" clip-path="url(#p93b81e3e45)" style="fill: none; stroke: #808080; stroke-width: 1.5; stroke-linecap: round"/>
                <path d="M 357.044028 243.400242
L 355.88786 248.640784 
L 352.389127 244.571524 
z
" clip-path="url(#p93b81e3e45)" style="fill: #808080; stroke: #808080; stroke-width: 1.5; stroke-linecap: round"/>
            </g>
            <g id="patch_15">
                <path d="M 94.84288 271.787464
Q 152.225766 309.795913 208.210492 346.878269 
" clip-path="url(#p93b81e3e45)" style="fill: none; stroke: #808080; stroke-width: 1.5; stroke-linecap: round"/>
                <path d="M 205.534041 342.226752
L 208.210492 346.878269 
L 202.883408 346.22852 
z
" clip-path="url(#p93b81e3e45)" style="fill: #808080; stroke: #808080; stroke-width: 1.5; stroke-linecap: round"/>
            </g>
            <g id="patch_16">
                <path d="M 164.889688 270.268953
Q 244.457351 309.796115 322.523082 348.577156 
" clip-path="url(#p93b81e3e45)" style="fill: none; stroke: #808080; stroke-width: 1.5; stroke-linecap: round"/>
                <path d="M 319.292061 344.29224
L 322.523082 348.577156 
L 317.156537 348.591023 
z
" clip-path="url(#p93b81e3e45)" style="fill: #808080; stroke: #808080; stroke-width: 1.5; stroke-linecap: round"/>
            </g>
            <g id="patch_17">
                <path d="M 210.327756 272.77883
Q 163.754825 309.796799 118.494749 345.771259 
" clip-path="url(#p93b81e3e45)" style="fill: none; stroke: #808080; stroke-width: 1.5; stroke-linecap: round"/>
                <path d="M 123.745709 344.663369
L 118.494749 345.771259 
L 120.759013 340.905757 
z
" clip-path="url(#p93b81e3e45)" style="fill: #808080; stroke: #808080; stroke-width: 1.5; stroke-linecap: round"/>
            </g>
            <g id="patch_18">
                <path d="M 277.910312 270.268953
Q 198.342649 309.796115 120.276918 348.577156 
" clip-path="url(#p93b81e3e45)" style="fill: none; stroke: #808080; stroke-width: 1.5; stroke-linecap: round"/>
                <path d="M 125.643463 348.591023
L 120.276918 348.577156 
L 123.507939 344.29224 
z
" clip-path="url(#p93b81e3e45)" style="fill: #808080; stroke: #808080; stroke-width: 1.5; stroke-linecap: round"/>
            </g>
            <g id="patch_19">
                <path d="M 282.051409 275.267733
Q 255.985629 309.797884 230.930247 342.98953 
" clip-path="url(#p93b81e3e45)" style="fill: none; stroke: #808080; stroke-width: 1.5; stroke-linecap: round"/>
                <path d="M 235.737687 340.604467
L 230.930247 342.98953 
L 231.906661 337.71254 
z
" clip-path="url(#p93b81e3e45)" style="fill: #808080; stroke: #808080; stroke-width: 1.5; stroke-linecap: round"/>
            </g>
            <g id="patch_20">
                <path d="M 356.295607 277.695112
Q 348.217441 309.799307 340.548504 340.277147 
" clip-path="url(#p93b81e3e45)" style="fill: none; stroke: #808080; stroke-width: 1.5; stroke-linecap: round"/>
                <path d="M 344.047236 336.207888
L 340.548504 340.277147 
L 339.392336 335.036606 
z
" clip-path="url(#p93b81e3e45)" style="fill: #808080; stroke: #808080; stroke-width: 1.5; stroke-linecap: round"/>
            </g>
            <g id="matplotlib.axis_1">
                <g id="xtick_1"/>
                <g id="xtick_2"/>
                <g id="xtick_3"/>
                <g id="xtick_4"/>
                <g id="xtick_5"/>
            </g>
            <g id="matplotlib.axis_2">
                <g id="ytick_1"/>
                <g id="ytick_2"/>
                <g id="ytick_3"/>
                <g id="ytick_4"/>
                <g id="ytick_5"/>
                <g id="ytick_6"/>
                <g id="ytick_7"/>
            </g>
            <g id="PathCollection_1">
                <defs>
                    <path id="m427c40e6b4" d="M 0 14.142136
C 3.750538 14.142136 7.347969 12.652031 10 10 
C 12.652031 7.347969 14.142136 3.750538 14.142136 0 
C 14.142136 -3.750538 12.652031 -7.347969 10 -10 
C 7.347969 -12.652031 3.750538 -14.142136 0 -14.142136 
C -3.750538 -14.142136 -7.347969 -12.652031 -10 -10 
C -12.652031 -7.347969 -14.142136 -3.750538 -14.142136 0 
C -14.142136 3.750538 -12.652031 7.347969 -10 10 
C -7.347969 12.652031 -3.750538 14.142136 0 14.142136 
z
" style="stroke: #add8e6"/>
                </defs>
                <g clip-path="url(#p93b81e3e45)">
                    <use xlink:href="#m427c40e6b4" x="221.4" y="80.705455" style="fill: #add8e6; stroke: #add8e6"/>
                    <use xlink:href="#m427c40e6b4" x="106.110744" y="172.341818"
                         style="fill: #add8e6; stroke: #add8e6"/>
                    <use xlink:href="#m427c40e6b4" x="221.4" y="172.341818" style="fill: #add8e6; stroke: #add8e6"/>
                    <use xlink:href="#m427c40e6b4" x="336.689256" y="172.341818"
                         style="fill: #add8e6; stroke: #add8e6"/>
                    <use xlink:href="#m427c40e6b4" x="83.052893" y="263.978182" style="fill: #add8e6; stroke: #add8e6"/>
                    <use xlink:href="#m427c40e6b4" x="152.226446" y="263.978182"
                         style="fill: #add8e6; stroke: #add8e6"/>
                    <use xlink:href="#m427c40e6b4" x="221.4" y="263.978182" style="fill: #add8e6; stroke: #add8e6"/>
                    <use xlink:href="#m427c40e6b4" x="290.573554" y="263.978182"
                         style="fill: #add8e6; stroke: #add8e6"/>
                    <use xlink:href="#m427c40e6b4" x="359.747107" y="263.978182"
                         style="fill: #add8e6; stroke: #add8e6"/>
                    <use xlink:href="#m427c40e6b4" x="106.110744" y="355.614545"
                         style="fill: #add8e6; stroke: #add8e6"/>
                    <use xlink:href="#m427c40e6b4" x="221.4" y="355.614545" style="fill: #add8e6; stroke: #add8e6"/>
                    <use xlink:href="#m427c40e6b4" x="336.689256" y="355.614545"
                         style="fill: #add8e6; stroke: #add8e6"/>
                </g>
            </g>
            <g id="patch_21">
                <path d="M 54 384.48
L 54 51.84 
" style="fill: none; stroke: #000000; stroke-width: 0.8; stroke-linejoin: miter; stroke-linecap: square"/>
            </g>
            <g id="patch_22">
                <path d="M 388.8 384.48
L 388.8 51.84 
" style="fill: none; stroke: #000000; stroke-width: 0.8; stroke-linejoin: miter; stroke-linecap: square"/>
            </g>
            <g id="patch_23">
                <path d="M 54 384.48
L 388.8 384.48 
" style="fill: none; stroke: #000000; stroke-width: 0.8; stroke-linejoin: miter; stroke-linecap: square"/>
            </g>
            <g id="patch_24">
                <path d="M 54 51.84
L 388.8 51.84 
" style="fill: none; stroke: #000000; stroke-width: 0.8; stroke-linejoin: miter; stroke-linecap: square"/>
            </g>
            <g id="text_1">
                <g clip-path="url(#p93b81e3e45)">
                    <!-- 1 -->
                    <g transform="translate(217.225313 84.016705) scale(0.12 -0.12)">
                        <defs>
                            <path id="DejaVuSans-Bold-31" d="M 750 831
L 1813 831 
L 1813 3847 
L 722 3622 
L 722 4441 
L 1806 4666 
L 2950 4666 
L 2950 831 
L 4013 831 
L 4013 0 
L 750 0 
L 750 831 
z
" transform="scale(0.015625)"/>
                        </defs>
                        <use xlink:href="#DejaVuSans-Bold-31"/>
                    </g>
                </g>
            </g>
            <g id="text_2">
                <g clip-path="url(#p93b81e3e45)">
                    <!-- 2 -->
                    <g transform="translate(101.936056 175.653068) scale(0.12 -0.12)">
                        <defs>
                            <path id="DejaVuSans-Bold-32" d="M 1844 884
L 3897 884 
L 3897 0 
L 506 0 
L 506 884 
L 2209 2388 
Q 2438 2594 2547 2791 
Q 2656 2988 2656 3200 
Q 2656 3528 2436 3728 
Q 2216 3928 1850 3928 
Q 1569 3928 1234 3808 
Q 900 3688 519 3450 
L 519 4475 
Q 925 4609 1322 4679 
Q 1719 4750 2100 4750 
Q 2938 4750 3402 4381 
Q 3866 4013 3866 3353 
Q 3866 2972 3669 2642 
Q 3472 2313 2841 1759 
L 1844 884 
z
" transform="scale(0.015625)"/>
                        </defs>
                        <use xlink:href="#DejaVuSans-Bold-32"/>
                    </g>
                </g>
            </g>
            <g id="text_3">
                <g clip-path="url(#p93b81e3e45)">
                    <!-- 3 -->
                    <g transform="translate(217.225313 175.653068) scale(0.12 -0.12)">
                        <defs>
                            <path id="DejaVuSans-Bold-33" d="M 2981 2516
Q 3453 2394 3698 2092 
Q 3944 1791 3944 1325 
Q 3944 631 3412 270 
Q 2881 -91 1863 -91 
Q 1503 -91 1142 -33 
Q 781 25 428 141 
L 428 1069 
Q 766 900 1098 814 
Q 1431 728 1753 728 
Q 2231 728 2486 893 
Q 2741 1059 2741 1369 
Q 2741 1688 2480 1852 
Q 2219 2016 1709 2016 
L 1228 2016 
L 1228 2791 
L 1734 2791 
Q 2188 2791 2409 2933 
Q 2631 3075 2631 3366 
Q 2631 3634 2415 3781 
Q 2200 3928 1806 3928 
Q 1516 3928 1219 3862 
Q 922 3797 628 3669 
L 628 4550 
Q 984 4650 1334 4700 
Q 1684 4750 2022 4750 
Q 2931 4750 3382 4451 
Q 3834 4153 3834 3553 
Q 3834 3144 3618 2883 
Q 3403 2622 2981 2516 
z
" transform="scale(0.015625)"/>
                        </defs>
                        <use xlink:href="#DejaVuSans-Bold-33"/>
                    </g>
                </g>
            </g>
            <g id="text_4">
                <g clip-path="url(#p93b81e3e45)">
                    <!-- 4 -->
                    <g transform="translate(332.514569 175.653068) scale(0.12 -0.12)">
                        <defs>
                            <path id="DejaVuSans-Bold-34" d="M 2356 3675
L 1038 1722 
L 2356 1722 
L 2356 3675 
z
M 2156 4666 
L 3494 4666 
L 3494 1722 
L 4159 1722 
L 4159 850 
L 3494 850 
L 3494 0 
L 2356 0 
L 2356 850 
L 288 850 
L 288 1881 
L 2156 4666 
z
" transform="scale(0.015625)"/>
                        </defs>
                        <use xlink:href="#DejaVuSans-Bold-34"/>
                    </g>
                </g>
            </g>
            <g id="text_5">
                <g clip-path="url(#p93b81e3e45)">
                    <!-- 5 -->
                    <g transform="translate(78.878205 267.289432) scale(0.12 -0.12)">
                        <defs>
                            <path id="DejaVuSans-Bold-35" d="M 678 4666
L 3669 4666 
L 3669 3781 
L 1638 3781 
L 1638 3059 
Q 1775 3097 1914 3117 
Q 2053 3138 2203 3138 
Q 3056 3138 3531 2711 
Q 4006 2284 4006 1522 
Q 4006 766 3489 337 
Q 2972 -91 2053 -91 
Q 1656 -91 1267 -14 
Q 878 63 494 219 
L 494 1166 
Q 875 947 1217 837 
Q 1559 728 1863 728 
Q 2300 728 2551 942 
Q 2803 1156 2803 1522 
Q 2803 1891 2551 2103 
Q 2300 2316 1863 2316 
Q 1603 2316 1309 2248 
Q 1016 2181 678 2041 
L 678 4666 
z
" transform="scale(0.015625)"/>
                        </defs>
                        <use xlink:href="#DejaVuSans-Bold-35"/>
                    </g>
                </g>
            </g>
            <g id="text_6">
                <g clip-path="url(#p93b81e3e45)">
                    <!-- 6 -->
                    <g transform="translate(148.051759 267.289432) scale(0.12 -0.12)">
                        <defs>
                            <path id="DejaVuSans-Bold-36" d="M 2316 2303
Q 2000 2303 1842 2098 
Q 1684 1894 1684 1484 
Q 1684 1075 1842 870 
Q 2000 666 2316 666 
Q 2634 666 2792 870 
Q 2950 1075 2950 1484 
Q 2950 1894 2792 2098 
Q 2634 2303 2316 2303 
z
M 3803 4544 
L 3803 3681 
Q 3506 3822 3243 3889 
Q 2981 3956 2731 3956 
Q 2194 3956 1894 3657 
Q 1594 3359 1544 2772 
Q 1750 2925 1990 3001 
Q 2231 3078 2516 3078 
Q 3231 3078 3670 2659 
Q 4109 2241 4109 1563 
Q 4109 813 3618 361 
Q 3128 -91 2303 -91 
Q 1394 -91 895 523 
Q 397 1138 397 2266 
Q 397 3422 980 4083 
Q 1563 4744 2578 4744 
Q 2900 4744 3203 4694 
Q 3506 4644 3803 4544 
z
" transform="scale(0.015625)"/>
                        </defs>
                        <use xlink:href="#DejaVuSans-Bold-36"/>
                    </g>
                </g>
            </g>
            <g id="text_7">
                <g clip-path="url(#p93b81e3e45)">
                    <!-- 7 -->
                    <g transform="translate(217.225313 267.289432) scale(0.12 -0.12)">
                        <defs>
                            <path id="DejaVuSans-Bold-37" d="M 428 4666
L 3944 4666 
L 3944 3988 
L 2125 0 
L 953 0 
L 2675 3781 
L 428 3781 
L 428 4666 
z
" transform="scale(0.015625)"/>
                        </defs>
                        <use xlink:href="#DejaVuSans-Bold-37"/>
                    </g>
                </g>
            </g>
            <g id="text_8">
                <g clip-path="url(#p93b81e3e45)">
                    <!-- 8 -->
                    <g transform="translate(286.398866 267.289432) scale(0.12 -0.12)">
                        <defs>
                            <path id="DejaVuSans-Bold-38" d="M 2228 2088
Q 1891 2088 1709 1903 
Q 1528 1719 1528 1375 
Q 1528 1031 1709 848 
Q 1891 666 2228 666 
Q 2563 666 2741 848 
Q 2919 1031 2919 1375 
Q 2919 1722 2741 1905 
Q 2563 2088 2228 2088 
z
M 1350 2484 
Q 925 2613 709 2878 
Q 494 3144 494 3541 
Q 494 4131 934 4440 
Q 1375 4750 2228 4750 
Q 3075 4750 3515 4442 
Q 3956 4134 3956 3541 
Q 3956 3144 3739 2878 
Q 3522 2613 3097 2484 
Q 3572 2353 3814 2058 
Q 4056 1763 4056 1313 
Q 4056 619 3595 264 
Q 3134 -91 2228 -91 
Q 1319 -91 855 264 
Q 391 619 391 1313 
Q 391 1763 633 2058 
Q 875 2353 1350 2484 
z
M 1631 3419 
Q 1631 3141 1786 2991 
Q 1941 2841 2228 2841 
Q 2509 2841 2662 2991 
Q 2816 3141 2816 3419 
Q 2816 3697 2662 3845 
Q 2509 3994 2228 3994 
Q 1941 3994 1786 3844 
Q 1631 3694 1631 3419 
z
" transform="scale(0.015625)"/>
                        </defs>
                        <use xlink:href="#DejaVuSans-Bold-38"/>
                    </g>
                </g>
            </g>
            <g id="text_9">
                <g clip-path="url(#p93b81e3e45)">
                    <!-- 9 -->
                    <g transform="translate(355.57242 267.289432) scale(0.12 -0.12)">
                        <defs>
                            <path id="DejaVuSans-Bold-39" d="M 641 103
L 641 966 
Q 928 831 1190 764 
Q 1453 697 1709 697 
Q 2247 697 2547 995 
Q 2847 1294 2900 1881 
Q 2688 1725 2447 1647 
Q 2206 1569 1925 1569 
Q 1209 1569 770 1986 
Q 331 2403 331 3084 
Q 331 3838 820 4291 
Q 1309 4744 2131 4744 
Q 3044 4744 3544 4128 
Q 4044 3513 4044 2388 
Q 4044 1231 3459 570 
Q 2875 -91 1856 -91 
Q 1528 -91 1228 -42 
Q 928 6 641 103 
z
M 2125 2350 
Q 2441 2350 2600 2554 
Q 2759 2759 2759 3169 
Q 2759 3575 2600 3781 
Q 2441 3988 2125 3988 
Q 1809 3988 1650 3781 
Q 1491 3575 1491 3169 
Q 1491 2759 1650 2554 
Q 1809 2350 2125 2350 
z
" transform="scale(0.015625)"/>
                        </defs>
                        <use xlink:href="#DejaVuSans-Bold-39"/>
                    </g>
                </g>
            </g>
            <g id="text_10">
                <g clip-path="url(#p93b81e3e45)">
                    <!-- 10 -->
                    <g transform="translate(97.761369 358.925795) scale(0.12 -0.12)">
                        <defs>
                            <path id="DejaVuSans-Bold-30" d="M 2944 2338
Q 2944 3213 2780 3570 
Q 2616 3928 2228 3928 
Q 1841 3928 1675 3570 
Q 1509 3213 1509 2338 
Q 1509 1453 1675 1090 
Q 1841 728 2228 728 
Q 2613 728 2778 1090 
Q 2944 1453 2944 2338 
z
M 4147 2328 
Q 4147 1169 3647 539 
Q 3147 -91 2228 -91 
Q 1306 -91 806 539 
Q 306 1169 306 2328 
Q 306 3491 806 4120 
Q 1306 4750 2228 4750 
Q 3147 4750 3647 4120 
Q 4147 3491 4147 2328 
z
" transform="scale(0.015625)"/>
                        </defs>
                        <use xlink:href="#DejaVuSans-Bold-31"/>
                        <use xlink:href="#DejaVuSans-Bold-30" x="69.580078"/>
                    </g>
                </g>
            </g>
            <g id="text_11">
                <g clip-path="url(#p93b81e3e45)">
                    <!-- 11 -->
                    <g transform="translate(213.050625 358.925795) scale(0.12 -0.12)">
                        <use xlink:href="#DejaVuSans-Bold-31"/>
                        <use xlink:href="#DejaVuSans-Bold-31" x="69.580078"/>
                    </g>
                </g>
            </g>
            <g id="text_12">
                <g clip-path="url(#p93b81e3e45)">
                    <!-- 12 -->
                    <g transform="translate(328.339881 358.925795) scale(0.12 -0.12)">
                        <use xlink:href="#DejaVuSans-Bold-31"/>
                        <use xlink:href="#DejaVuSans-Bold-32" x="69.580078"/>
                    </g>
                </g>
            </g>
        </g>
    </g>
    <defs>
        <clipPath id="p93b81e3e45">
            <rect x="54" y="51.84" width="334.8" height="332.64"/>
        </clipPath>
    </defs>
</svg>
